<?xml version="1.0" encoding="UTF-8"?>
<svg id="Layer_1" data-name="Layer 1" xmlns="http://www.w3.org/2000/svg" viewBox="0 0 2585.91 2585.91">
  <g id="P3n85D.tif">
    <path d="M2405.45,2258.38c-30.67,21.9-66.83,35.46-105.33,37.79-124.29,7.75-1096.95,2.84-1660.35,4.12-202.47-1.87-251.11,3.54-329.9-2.96-36.59-1.51-71.57-6.65-104.8-24.9-72.37-36.24-99.93-118.54-102.64-193.85,2.79-172.9-2.02-1031.22,0-1291.33-3.17-35-1.66-76.1-.85-112.72,3.6-71.87-10.84-117.85,3.93-198.21,14.77-94.12,82.77-183.96,183.3-188.76,90.36-3.46,164.52-1.96,258.43-2.2,73.89.12,146.96.09,212.12.19,24.82-.56,41.49,1.56,65.12,7.09,93.23,21.57,156.69,104.55,239.01,147.59,40.1,20.41,88.79,27.75,132.68,27.94,250.56.01,969.53.97,1091.57,1.22,96.73,4.57,160.65,71.07,190.6,159.48,5.86,22.4,8.38,51.51,8.85,75.45-7.24,176.45-2.26,951.7-3.6,1335.67.95,39.21,3.75,84.34-9.63,122.73-13.16,36.89-37.33,71.14-68.16,95.38l-.36.27Z"/>
  </g>
</svg>
